# xmcd CD database file
#
# Track frame offsets:
#       150
#       12322
#       25680
#       39915
#       55082
#       72637
#       90910
#       111635
#       126777
#       148622
#       165322
#
# Disc length: 2452 seconds
#
# Revision: 0
# Processed by: cddbd v1.4PL0 Copyright (c) Steve Scherf et al.
# Submitted via: jack 2.99.6
#
DISCID=8b09920b
DTITLE=Jose Felicano - The Best of Jose Felicano
DYEAR=1900
DGENRE=
TTITLE0=Rain
TTITLE1=La Bamba
TTITLE2=Light My Fire
TTITLE3=In My Life
TTITLE4=The Last Time
TTITLE5=California Dreamin
TTITLE6=Hi Heel Sneakers
TTITLE7=Time After Time
TTITLE8=Jealous Guy
TTITLE9=Angela
TTITLE10=Che sera sera
EXTD=
EXTT0=
EXTT1=
EXTT2=
EXTT3=
EXTT4=
EXTT5=
EXTT6=
EXTT7=
EXTT8=
EXTT9=
EXTT10=
PLAYORDER=
